<mxfile host="app.diagrams.net" modified="2023-04-22T12:16:16.724Z" agent="Mozilla/5.0 (Windows NT 10.0; Win64; x64; rv:109.0) Gecko/20100101 Firefox/112.0" etag="OJfrgJ8v3hyfvb8yDT0-" version="21.2.1" type="github">
  <diagram name="第 1 页" id="mZVCznx9Z_1E99cwbe9i">
    <mxGraphModel dx="3278" dy="1446" grid="1" gridSize="10" guides="1" tooltips="1" connect="1" arrows="1" fold="1" page="1" pageScale="1" pageWidth="827" pageHeight="1169" math="0" shadow="0">
      <root>
        <mxCell id="0" />
        <mxCell id="1" parent="0" />
        <mxCell id="QKNBHRqbRmeoYUQTIRi8-43" value="" style="endArrow=none;html=1;rounded=0;exitX=1;exitY=0.5;exitDx=0;exitDy=0;entryX=0;entryY=0.5;entryDx=0;entryDy=0;" edge="1" parent="1">
          <mxGeometry width="50" height="50" relative="1" as="geometry">
            <mxPoint x="231" y="420" as="sourcePoint" />
            <mxPoint x="271" y="420" as="targetPoint" />
          </mxGeometry>
        </mxCell>
        <mxCell id="QKNBHRqbRmeoYUQTIRi8-1" value="订单" style="rhombus;whiteSpace=wrap;html=1;" vertex="1" parent="1">
          <mxGeometry x="400" y="280" width="80" height="80" as="geometry" />
        </mxCell>
        <mxCell id="QKNBHRqbRmeoYUQTIRi8-2" value="食堂" style="whiteSpace=wrap;html=1;" vertex="1" parent="1">
          <mxGeometry x="380" y="180" width="120" height="60" as="geometry" />
        </mxCell>
        <mxCell id="QKNBHRqbRmeoYUQTIRi8-4" value="学生" style="whiteSpace=wrap;html=1;" vertex="1" parent="1">
          <mxGeometry x="380" y="390" width="120" height="60" as="geometry" />
        </mxCell>
        <mxCell id="QKNBHRqbRmeoYUQTIRi8-6" value="借书" style="rhombus;whiteSpace=wrap;html=1;" vertex="1" parent="1">
          <mxGeometry x="400" y="480" width="80" height="80" as="geometry" />
        </mxCell>
        <mxCell id="QKNBHRqbRmeoYUQTIRi8-9" value="教学" style="rhombus;whiteSpace=wrap;html=1;" vertex="1" parent="1">
          <mxGeometry x="260" y="380" width="80" height="80" as="geometry" />
        </mxCell>
        <mxCell id="QKNBHRqbRmeoYUQTIRi8-12" value="预约" style="rhombus;whiteSpace=wrap;html=1;" vertex="1" parent="1">
          <mxGeometry x="540" y="380" width="80" height="80" as="geometry" />
        </mxCell>
        <mxCell id="QKNBHRqbRmeoYUQTIRi8-19" value="图书馆" style="whiteSpace=wrap;html=1;" vertex="1" parent="1">
          <mxGeometry x="380" y="590" width="120" height="60" as="geometry" />
        </mxCell>
        <mxCell id="QKNBHRqbRmeoYUQTIRi8-23" value="" style="endArrow=none;html=1;rounded=0;exitX=0.5;exitY=0;exitDx=0;exitDy=0;" edge="1" parent="1" source="QKNBHRqbRmeoYUQTIRi8-4">
          <mxGeometry width="50" height="50" relative="1" as="geometry">
            <mxPoint x="390" y="410" as="sourcePoint" />
            <mxPoint x="440" y="360" as="targetPoint" />
          </mxGeometry>
        </mxCell>
        <mxCell id="QKNBHRqbRmeoYUQTIRi8-24" value="" style="endArrow=none;html=1;rounded=0;" edge="1" parent="1">
          <mxGeometry width="50" height="50" relative="1" as="geometry">
            <mxPoint x="440" y="481" as="sourcePoint" />
            <mxPoint x="440" y="451" as="targetPoint" />
          </mxGeometry>
        </mxCell>
        <mxCell id="QKNBHRqbRmeoYUQTIRi8-25" value="" style="endArrow=none;html=1;rounded=0;" edge="1" parent="1">
          <mxGeometry width="50" height="50" relative="1" as="geometry">
            <mxPoint x="440" y="591" as="sourcePoint" />
            <mxPoint x="440" y="561" as="targetPoint" />
          </mxGeometry>
        </mxCell>
        <mxCell id="QKNBHRqbRmeoYUQTIRi8-26" value="" style="endArrow=none;html=1;rounded=0;" edge="1" parent="1">
          <mxGeometry width="50" height="50" relative="1" as="geometry">
            <mxPoint x="330" y="700" as="sourcePoint" />
            <mxPoint x="380" y="650" as="targetPoint" />
          </mxGeometry>
        </mxCell>
        <mxCell id="QKNBHRqbRmeoYUQTIRi8-27" value="借书号" style="ellipse;whiteSpace=wrap;html=1;" vertex="1" parent="1">
          <mxGeometry x="260" y="680" width="120" height="80" as="geometry" />
        </mxCell>
        <mxCell id="QKNBHRqbRmeoYUQTIRi8-28" value="" style="endArrow=none;html=1;rounded=0;" edge="1" parent="1">
          <mxGeometry width="50" height="50" relative="1" as="geometry">
            <mxPoint x="560" y="700" as="sourcePoint" />
            <mxPoint x="500" y="650" as="targetPoint" />
          </mxGeometry>
        </mxCell>
        <mxCell id="QKNBHRqbRmeoYUQTIRi8-29" value="时间" style="ellipse;whiteSpace=wrap;html=1;" vertex="1" parent="1">
          <mxGeometry x="500" y="680" width="120" height="80" as="geometry" />
        </mxCell>
        <mxCell id="QKNBHRqbRmeoYUQTIRi8-30" value="" style="endArrow=none;html=1;rounded=0;exitX=1;exitY=0.5;exitDx=0;exitDy=0;entryX=0;entryY=0.5;entryDx=0;entryDy=0;" edge="1" parent="1" source="QKNBHRqbRmeoYUQTIRi8-9" target="QKNBHRqbRmeoYUQTIRi8-4">
          <mxGeometry width="50" height="50" relative="1" as="geometry">
            <mxPoint x="330" y="460" as="sourcePoint" />
            <mxPoint x="380" y="410" as="targetPoint" />
          </mxGeometry>
        </mxCell>
        <mxCell id="QKNBHRqbRmeoYUQTIRi8-31" value="" style="endArrow=none;html=1;rounded=0;exitX=1;exitY=0.5;exitDx=0;exitDy=0;entryX=0;entryY=0.5;entryDx=0;entryDy=0;" edge="1" parent="1">
          <mxGeometry width="50" height="50" relative="1" as="geometry">
            <mxPoint x="500" y="421" as="sourcePoint" />
            <mxPoint x="540" y="421" as="targetPoint" />
          </mxGeometry>
        </mxCell>
        <mxCell id="QKNBHRqbRmeoYUQTIRi8-32" value="" style="endArrow=none;html=1;rounded=0;" edge="1" parent="1">
          <mxGeometry width="50" height="50" relative="1" as="geometry">
            <mxPoint x="500" y="180" as="sourcePoint" />
            <mxPoint x="550" y="130" as="targetPoint" />
          </mxGeometry>
        </mxCell>
        <mxCell id="QKNBHRqbRmeoYUQTIRi8-33" value="" style="endArrow=none;html=1;rounded=0;" edge="1" parent="1">
          <mxGeometry width="50" height="50" relative="1" as="geometry">
            <mxPoint x="330" y="140" as="sourcePoint" />
            <mxPoint x="380" y="180" as="targetPoint" />
          </mxGeometry>
        </mxCell>
        <mxCell id="QKNBHRqbRmeoYUQTIRi8-34" value="点餐时间" style="ellipse;whiteSpace=wrap;html=1;" vertex="1" parent="1">
          <mxGeometry x="240" y="70" width="120" height="80" as="geometry" />
        </mxCell>
        <mxCell id="QKNBHRqbRmeoYUQTIRi8-35" value="送餐地址" style="ellipse;whiteSpace=wrap;html=1;" vertex="1" parent="1">
          <mxGeometry x="500" y="60" width="120" height="80" as="geometry" />
        </mxCell>
        <mxCell id="QKNBHRqbRmeoYUQTIRi8-36" value="" style="endArrow=none;html=1;rounded=0;" edge="1" parent="1">
          <mxGeometry width="50" height="50" relative="1" as="geometry">
            <mxPoint x="707" y="420" as="sourcePoint" />
            <mxPoint x="757" y="370" as="targetPoint" />
          </mxGeometry>
        </mxCell>
        <mxCell id="QKNBHRqbRmeoYUQTIRi8-37" value="场所" style="ellipse;whiteSpace=wrap;html=1;" vertex="1" parent="1">
          <mxGeometry x="707" y="300" width="120" height="80" as="geometry" />
        </mxCell>
        <mxCell id="QKNBHRqbRmeoYUQTIRi8-38" value="" style="endArrow=none;html=1;rounded=0;exitX=1;exitY=0.5;exitDx=0;exitDy=0;entryX=0;entryY=0.5;entryDx=0;entryDy=0;" edge="1" parent="1">
          <mxGeometry width="50" height="50" relative="1" as="geometry">
            <mxPoint x="621" y="421" as="sourcePoint" />
            <mxPoint x="661" y="421" as="targetPoint" />
          </mxGeometry>
        </mxCell>
        <mxCell id="QKNBHRqbRmeoYUQTIRi8-39" value="活动" style="whiteSpace=wrap;html=1;" vertex="1" parent="1">
          <mxGeometry x="660" y="390" width="120" height="60" as="geometry" />
        </mxCell>
        <mxCell id="QKNBHRqbRmeoYUQTIRi8-40" value="学号" style="ellipse;whiteSpace=wrap;html=1;" vertex="1" parent="1">
          <mxGeometry x="10" y="290" width="120" height="80" as="geometry" />
        </mxCell>
        <mxCell id="QKNBHRqbRmeoYUQTIRi8-41" value="" style="endArrow=none;html=1;rounded=0;" edge="1" parent="1">
          <mxGeometry width="50" height="50" relative="1" as="geometry">
            <mxPoint x="100" y="360" as="sourcePoint" />
            <mxPoint x="150" y="400" as="targetPoint" />
          </mxGeometry>
        </mxCell>
        <mxCell id="QKNBHRqbRmeoYUQTIRi8-42" value="学校" style="whiteSpace=wrap;html=1;" vertex="1" parent="1">
          <mxGeometry x="120" y="390" width="120" height="60" as="geometry" />
        </mxCell>
        <mxCell id="QKNBHRqbRmeoYUQTIRi8-44" value="" style="endArrow=none;html=1;rounded=0;" edge="1" parent="1" target="QKNBHRqbRmeoYUQTIRi8-42">
          <mxGeometry width="50" height="50" relative="1" as="geometry">
            <mxPoint x="100" y="470" as="sourcePoint" />
            <mxPoint x="150" y="510" as="targetPoint" />
          </mxGeometry>
        </mxCell>
        <mxCell id="QKNBHRqbRmeoYUQTIRi8-45" value="入学时间" style="ellipse;whiteSpace=wrap;html=1;" vertex="1" parent="1">
          <mxGeometry x="-10" y="420" width="120" height="80" as="geometry" />
        </mxCell>
        <mxCell id="QKNBHRqbRmeoYUQTIRi8-46" value="" style="endArrow=none;html=1;rounded=0;entryX=0.5;entryY=0;entryDx=0;entryDy=0;" edge="1" parent="1" target="QKNBHRqbRmeoYUQTIRi8-42">
          <mxGeometry width="50" height="50" relative="1" as="geometry">
            <mxPoint x="210" y="320" as="sourcePoint" />
            <mxPoint x="260" y="360" as="targetPoint" />
          </mxGeometry>
        </mxCell>
        <mxCell id="QKNBHRqbRmeoYUQTIRi8-47" value="性别" style="ellipse;whiteSpace=wrap;html=1;" vertex="1" parent="1">
          <mxGeometry x="120" y="250" width="120" height="80" as="geometry" />
        </mxCell>
        <mxCell id="QKNBHRqbRmeoYUQTIRi8-48" value="年级" style="ellipse;whiteSpace=wrap;html=1;" vertex="1" parent="1">
          <mxGeometry x="90" y="480" width="120" height="80" as="geometry" />
        </mxCell>
        <mxCell id="QKNBHRqbRmeoYUQTIRi8-49" value="" style="endArrow=none;html=1;rounded=0;exitX=0.5;exitY=0;exitDx=0;exitDy=0;" edge="1" parent="1" source="QKNBHRqbRmeoYUQTIRi8-48">
          <mxGeometry width="50" height="50" relative="1" as="geometry">
            <mxPoint x="141" y="470" as="sourcePoint" />
            <mxPoint x="173" y="450" as="targetPoint" />
          </mxGeometry>
        </mxCell>
        <mxCell id="QKNBHRqbRmeoYUQTIRi8-50" value="考试信息" style="ellipse;whiteSpace=wrap;html=1;" vertex="1" parent="1">
          <mxGeometry x="220" y="490" width="120" height="80" as="geometry" />
        </mxCell>
        <mxCell id="QKNBHRqbRmeoYUQTIRi8-51" value="" style="endArrow=none;html=1;rounded=0;exitX=0.5;exitY=0;exitDx=0;exitDy=0;entryX=0.967;entryY=0.883;entryDx=0;entryDy=0;entryPerimeter=0;" edge="1" source="QKNBHRqbRmeoYUQTIRi8-50" parent="1" target="QKNBHRqbRmeoYUQTIRi8-42">
          <mxGeometry width="50" height="50" relative="1" as="geometry">
            <mxPoint x="271" y="480" as="sourcePoint" />
            <mxPoint x="260" y="450" as="targetPoint" />
          </mxGeometry>
        </mxCell>
        <mxCell id="QKNBHRqbRmeoYUQTIRi8-52" value="" style="endArrow=none;html=1;rounded=0;exitX=0.5;exitY=0;exitDx=0;exitDy=0;entryX=0.967;entryY=0.883;entryDx=0;entryDy=0;entryPerimeter=0;" edge="1" source="QKNBHRqbRmeoYUQTIRi8-53" parent="1">
          <mxGeometry width="50" height="50" relative="1" as="geometry">
            <mxPoint x="758" y="487.02" as="sourcePoint" />
            <mxPoint x="723" y="450.02" as="targetPoint" />
          </mxGeometry>
        </mxCell>
        <mxCell id="QKNBHRqbRmeoYUQTIRi8-53" value="预约时间" style="ellipse;whiteSpace=wrap;html=1;" vertex="1" parent="1">
          <mxGeometry x="707" y="497.02" width="120" height="80" as="geometry" />
        </mxCell>
        <mxCell id="QKNBHRqbRmeoYUQTIRi8-54" value="&lt;div&gt;人员数&lt;br&gt;&lt;/div&gt;" style="ellipse;whiteSpace=wrap;html=1;" vertex="1" parent="1">
          <mxGeometry x="570" y="490" width="120" height="80" as="geometry" />
        </mxCell>
        <mxCell id="QKNBHRqbRmeoYUQTIRi8-55" value="" style="endArrow=none;html=1;rounded=0;exitX=0.5;exitY=0;exitDx=0;exitDy=0;entryX=0;entryY=1;entryDx=0;entryDy=0;" edge="1" source="QKNBHRqbRmeoYUQTIRi8-54" parent="1" target="QKNBHRqbRmeoYUQTIRi8-39">
          <mxGeometry width="50" height="50" relative="1" as="geometry">
            <mxPoint x="651" y="480" as="sourcePoint" />
            <mxPoint x="650" y="443.52" as="targetPoint" />
          </mxGeometry>
        </mxCell>
        <mxCell id="QKNBHRqbRmeoYUQTIRi8-56" value="" style="endArrow=none;html=1;rounded=0;exitX=0.5;exitY=0;exitDx=0;exitDy=0;entryX=0.5;entryY=1;entryDx=0;entryDy=0;" edge="1" parent="1" source="QKNBHRqbRmeoYUQTIRi8-1" target="QKNBHRqbRmeoYUQTIRi8-2">
          <mxGeometry width="50" height="50" relative="1" as="geometry">
            <mxPoint x="439" y="272" as="sourcePoint" />
            <mxPoint x="439" y="242" as="targetPoint" />
          </mxGeometry>
        </mxCell>
      </root>
    </mxGraphModel>
  </diagram>
</mxfile>
